<mxfile host="www.draw.io" modified="2020-01-28T02:50:32.075Z" agent="Mozilla/5.0 (Macintosh; Intel Mac OS X 10_15_2) AppleWebKit/537.36 (KHTML, like Gecko) Chrome/79.0.3945.130 Safari/537.36" etag="3XoII1K-p1tLNiDSoorQ" version="12.5.8" type="github">
  <diagram name="Page-1" id="b5b7bab2-c9e2-2cf4-8b2a-24fd1a2a6d21">
    <mxGraphModel dx="1557" dy="737" grid="1" gridSize="10" guides="1" tooltips="1" connect="1" arrows="1" fold="1" page="1" pageScale="1" pageWidth="827" pageHeight="1169" background="#ffffff" math="0" shadow="0">
      <root>
        <mxCell id="0"/>
        <mxCell id="1" parent="0"/>
        <mxCell id="qUl1298BJiQfXsKrI5A6-1" value="Program" style="swimlane;fontStyle=1;align=center;verticalAlign=top;childLayout=stackLayout;horizontal=1;startSize=26;horizontalStack=0;resizeParent=1;resizeParentMax=0;resizeLast=0;collapsible=1;marginBottom=0;" vertex="1" parent="1">
          <mxGeometry x="20" y="160" width="250" height="294" as="geometry"/>
        </mxCell>
        <mxCell id="qUl1298BJiQfXsKrI5A6-2" value="+ name: string ( 256 ) required" style="text;strokeColor=none;fillColor=none;align=left;verticalAlign=top;spacingLeft=4;spacingRight=4;overflow=hidden;rotatable=0;points=[[0,0.5],[1,0.5]];portConstraint=eastwest;" vertex="1" parent="qUl1298BJiQfXsKrI5A6-1">
          <mxGeometry y="26" width="250" height="26" as="geometry"/>
        </mxCell>
        <mxCell id="qUl1298BJiQfXsKrI5A6-11" value="+ code: slug ( 32 ), required, unique" style="text;strokeColor=none;fillColor=none;align=left;verticalAlign=top;spacingLeft=4;spacingRight=4;overflow=hidden;rotatable=0;points=[[0,0.5],[1,0.5]];portConstraint=eastwest;" vertex="1" parent="qUl1298BJiQfXsKrI5A6-1">
          <mxGeometry y="52" width="250" height="26" as="geometry"/>
        </mxCell>
        <mxCell id="qUl1298BJiQfXsKrI5A6-20" value="+ description: text: " style="text;strokeColor=none;fillColor=none;align=left;verticalAlign=top;spacingLeft=4;spacingRight=4;overflow=hidden;rotatable=0;points=[[0,0.5],[1,0.5]];portConstraint=eastwest;" vertex="1" parent="qUl1298BJiQfXsKrI5A6-1">
          <mxGeometry y="78" width="250" height="26" as="geometry"/>
        </mxCell>
        <mxCell id="qUl1298BJiQfXsKrI5A6-12" value="+ period: daterange: " style="text;strokeColor=none;fillColor=none;align=left;verticalAlign=top;spacingLeft=4;spacingRight=4;overflow=hidden;rotatable=0;points=[[0,0.5],[1,0.5]];portConstraint=eastwest;" vertex="1" parent="qUl1298BJiQfXsKrI5A6-1">
          <mxGeometry y="104" width="250" height="26" as="geometry"/>
        </mxCell>
        <mxCell id="qUl1298BJiQfXsKrI5A6-45" value="+ total_budget: numeric: " style="text;strokeColor=none;fillColor=none;align=left;verticalAlign=top;spacingLeft=4;spacingRight=4;overflow=hidden;rotatable=0;points=[[0,0.5],[1,0.5]];portConstraint=eastwest;" vertex="1" parent="qUl1298BJiQfXsKrI5A6-1">
          <mxGeometry y="130" width="250" height="26" as="geometry"/>
        </mxCell>
        <mxCell id="qUl1298BJiQfXsKrI5A6-43" value="+ projects: Projects" style="text;strokeColor=none;fillColor=none;align=left;verticalAlign=top;spacingLeft=4;spacingRight=4;overflow=hidden;rotatable=0;points=[[0,0.5],[1,0.5]];portConstraint=eastwest;" vertex="1" parent="qUl1298BJiQfXsKrI5A6-1">
          <mxGeometry y="156" width="250" height="26" as="geometry"/>
        </mxCell>
        <mxCell id="qUl1298BJiQfXsKrI5A6-46" value="+ budget_breakdown: Budgets" style="text;strokeColor=none;fillColor=none;align=left;verticalAlign=top;spacingLeft=4;spacingRight=4;overflow=hidden;rotatable=0;points=[[0,0.5],[1,0.5]];portConstraint=eastwest;" vertex="1" parent="qUl1298BJiQfXsKrI5A6-1">
          <mxGeometry y="182" width="250" height="26" as="geometry"/>
        </mxCell>
        <mxCell id="qUl1298BJiQfXsKrI5A6-51" value="+ funding_sources: FundingSources " style="text;strokeColor=none;fillColor=none;align=left;verticalAlign=top;spacingLeft=4;spacingRight=4;overflow=hidden;rotatable=0;points=[[0,0.5],[1,0.5]];portConstraint=eastwest;" vertex="1" parent="qUl1298BJiQfXsKrI5A6-1">
          <mxGeometry y="208" width="250" height="26" as="geometry"/>
        </mxCell>
        <mxCell id="qUl1298BJiQfXsKrI5A6-64" value="+ documents: Documents " style="text;strokeColor=none;fillColor=none;align=left;verticalAlign=top;spacingLeft=4;spacingRight=4;overflow=hidden;rotatable=0;points=[[0,0.5],[1,0.5]];portConstraint=eastwest;" vertex="1" parent="qUl1298BJiQfXsKrI5A6-1">
          <mxGeometry y="234" width="250" height="26" as="geometry"/>
        </mxCell>
        <mxCell id="qUl1298BJiQfXsKrI5A6-50" value="+ status: ProgramStatus: " style="text;strokeColor=none;fillColor=none;align=left;verticalAlign=top;spacingLeft=4;spacingRight=4;overflow=hidden;rotatable=0;points=[[0,0.5],[1,0.5]];portConstraint=eastwest;" vertex="1" parent="qUl1298BJiQfXsKrI5A6-1">
          <mxGeometry y="260" width="250" height="26" as="geometry"/>
        </mxCell>
        <mxCell id="qUl1298BJiQfXsKrI5A6-3" value="" style="line;strokeWidth=1;fillColor=none;align=left;verticalAlign=middle;spacingTop=-1;spacingLeft=3;spacingRight=3;rotatable=0;labelPosition=right;points=[];portConstraint=eastwest;" vertex="1" parent="qUl1298BJiQfXsKrI5A6-1">
          <mxGeometry y="286" width="250" height="8" as="geometry"/>
        </mxCell>
        <mxCell id="qUl1298BJiQfXsKrI5A6-6" value="Budget" style="swimlane;fontStyle=1;align=center;verticalAlign=top;childLayout=stackLayout;horizontal=1;startSize=26;horizontalStack=0;resizeParent=1;resizeParentMax=0;resizeLast=0;collapsible=1;marginBottom=0;" vertex="1" parent="1">
          <mxGeometry x="320" y="428" width="160" height="86" as="geometry"/>
        </mxCell>
        <mxCell id="qUl1298BJiQfXsKrI5A6-7" value="+ period: daterange" style="text;strokeColor=none;fillColor=none;align=left;verticalAlign=top;spacingLeft=4;spacingRight=4;overflow=hidden;rotatable=0;points=[[0,0.5],[1,0.5]];portConstraint=eastwest;" vertex="1" parent="qUl1298BJiQfXsKrI5A6-6">
          <mxGeometry y="26" width="160" height="26" as="geometry"/>
        </mxCell>
        <mxCell id="qUl1298BJiQfXsKrI5A6-47" value="+ value: numeric" style="text;strokeColor=none;fillColor=none;align=left;verticalAlign=top;spacingLeft=4;spacingRight=4;overflow=hidden;rotatable=0;points=[[0,0.5],[1,0.5]];portConstraint=eastwest;" vertex="1" parent="qUl1298BJiQfXsKrI5A6-6">
          <mxGeometry y="52" width="160" height="26" as="geometry"/>
        </mxCell>
        <mxCell id="qUl1298BJiQfXsKrI5A6-8" value="" style="line;strokeWidth=1;fillColor=none;align=left;verticalAlign=middle;spacingTop=-1;spacingLeft=3;spacingRight=3;rotatable=0;labelPosition=right;points=[];portConstraint=eastwest;" vertex="1" parent="qUl1298BJiQfXsKrI5A6-6">
          <mxGeometry y="78" width="160" height="8" as="geometry"/>
        </mxCell>
        <mxCell id="qUl1298BJiQfXsKrI5A6-25" value="Project" style="swimlane;fontStyle=1;align=center;verticalAlign=top;childLayout=stackLayout;horizontal=1;startSize=26;horizontalStack=0;resizeParent=1;resizeParentMax=0;resizeLast=0;collapsible=1;marginBottom=0;" vertex="1" parent="1">
          <mxGeometry x="585" y="170" width="245" height="424" as="geometry"/>
        </mxCell>
        <mxCell id="qUl1298BJiQfXsKrI5A6-26" value="+ name: string ( 256 ) required" style="text;strokeColor=none;fillColor=none;align=left;verticalAlign=top;spacingLeft=4;spacingRight=4;overflow=hidden;rotatable=0;points=[[0,0.5],[1,0.5]];portConstraint=eastwest;" vertex="1" parent="qUl1298BJiQfXsKrI5A6-25">
          <mxGeometry y="26" width="245" height="26" as="geometry"/>
        </mxCell>
        <mxCell id="qUl1298BJiQfXsKrI5A6-34" value="+ code: slug ( 32 ) required, unique" style="text;strokeColor=none;fillColor=none;align=left;verticalAlign=top;spacingLeft=4;spacingRight=4;overflow=hidden;rotatable=0;points=[[0,0.5],[1,0.5]];portConstraint=eastwest;" vertex="1" parent="qUl1298BJiQfXsKrI5A6-25">
          <mxGeometry y="52" width="245" height="26" as="geometry"/>
        </mxCell>
        <mxCell id="qUl1298BJiQfXsKrI5A6-35" value="+ description: text" style="text;strokeColor=none;fillColor=none;align=left;verticalAlign=top;spacingLeft=4;spacingRight=4;overflow=hidden;rotatable=0;points=[[0,0.5],[1,0.5]];portConstraint=eastwest;" vertex="1" parent="qUl1298BJiQfXsKrI5A6-25">
          <mxGeometry y="78" width="245" height="26" as="geometry"/>
        </mxCell>
        <mxCell id="qUl1298BJiQfXsKrI5A6-72" value="+ assets: Assets" style="text;strokeColor=none;fillColor=none;align=left;verticalAlign=top;spacingLeft=4;spacingRight=4;overflow=hidden;rotatable=0;points=[[0,0.5],[1,0.5]];portConstraint=eastwest;" vertex="1" parent="qUl1298BJiQfXsKrI5A6-25">
          <mxGeometry y="104" width="245" height="26" as="geometry"/>
        </mxCell>
        <mxCell id="qUl1298BJiQfXsKrI5A6-75" value="+ type_of_work: WorkType" style="text;strokeColor=none;fillColor=none;align=left;verticalAlign=top;spacingLeft=4;spacingRight=4;overflow=hidden;rotatable=0;points=[[0,0.5],[1,0.5]];portConstraint=eastwest;" vertex="1" parent="qUl1298BJiQfXsKrI5A6-25">
          <mxGeometry y="130" width="245" height="26" as="geometry"/>
        </mxCell>
        <mxCell id="qUl1298BJiQfXsKrI5A6-82" value="+ total_budget: numeric" style="text;strokeColor=none;fillColor=none;align=left;verticalAlign=top;spacingLeft=4;spacingRight=4;overflow=hidden;rotatable=0;points=[[0,0.5],[1,0.5]];portConstraint=eastwest;" vertex="1" parent="qUl1298BJiQfXsKrI5A6-25">
          <mxGeometry y="156" width="245" height="26" as="geometry"/>
        </mxCell>
        <mxCell id="qUl1298BJiQfXsKrI5A6-81" value="+ budget_breakdown: Budgets" style="text;strokeColor=none;fillColor=none;align=left;verticalAlign=top;spacingLeft=4;spacingRight=4;overflow=hidden;rotatable=0;points=[[0,0.5],[1,0.5]];portConstraint=eastwest;" vertex="1" parent="qUl1298BJiQfXsKrI5A6-25">
          <mxGeometry y="182" width="245" height="26" as="geometry"/>
        </mxCell>
        <mxCell id="qUl1298BJiQfXsKrI5A6-91" value="+ approval: ProjectApproval" style="text;strokeColor=none;fillColor=none;align=left;verticalAlign=top;spacingLeft=4;spacingRight=4;overflow=hidden;rotatable=0;points=[[0,0.5],[1,0.5]];portConstraint=eastwest;" vertex="1" parent="qUl1298BJiQfXsKrI5A6-25">
          <mxGeometry y="208" width="245" height="26" as="geometry"/>
        </mxCell>
        <mxCell id="qUl1298BJiQfXsKrI5A6-84" value="+ funding_sources: FundingSource" style="text;strokeColor=none;fillColor=none;align=left;verticalAlign=top;spacingLeft=4;spacingRight=4;overflow=hidden;rotatable=0;points=[[0,0.5],[1,0.5]];portConstraint=eastwest;" vertex="1" parent="qUl1298BJiQfXsKrI5A6-25">
          <mxGeometry y="234" width="245" height="26" as="geometry"/>
        </mxCell>
        <mxCell id="qUl1298BJiQfXsKrI5A6-93" value="+ environment_data: ?????" style="text;strokeColor=none;fillColor=none;align=left;verticalAlign=top;spacingLeft=4;spacingRight=4;overflow=hidden;rotatable=0;points=[[0,0.5],[1,0.5]];portConstraint=eastwest;" vertex="1" parent="qUl1298BJiQfXsKrI5A6-25">
          <mxGeometry y="260" width="245" height="26" as="geometry"/>
        </mxCell>
        <mxCell id="qUl1298BJiQfXsKrI5A6-101" value="+ social_requirement: SocialRequirement" style="text;strokeColor=none;fillColor=none;align=left;verticalAlign=top;spacingLeft=4;spacingRight=4;overflow=hidden;rotatable=0;points=[[0,0.5],[1,0.5]];portConstraint=eastwest;" vertex="1" parent="qUl1298BJiQfXsKrI5A6-25">
          <mxGeometry y="286" width="245" height="26" as="geometry"/>
        </mxCell>
        <mxCell id="qUl1298BJiQfXsKrI5A6-94" value="+ status: ProjectStatus" style="text;strokeColor=none;fillColor=none;align=left;verticalAlign=top;spacingLeft=4;spacingRight=4;overflow=hidden;rotatable=0;points=[[0,0.5],[1,0.5]];portConstraint=eastwest;" vertex="1" parent="qUl1298BJiQfXsKrI5A6-25">
          <mxGeometry y="312" width="245" height="26" as="geometry"/>
        </mxCell>
        <mxCell id="qUl1298BJiQfXsKrI5A6-106" value="+ documents: Documents" style="text;strokeColor=none;fillColor=none;align=left;verticalAlign=top;spacingLeft=4;spacingRight=4;overflow=hidden;rotatable=0;points=[[0,0.5],[1,0.5]];portConstraint=eastwest;" vertex="1" parent="qUl1298BJiQfXsKrI5A6-25">
          <mxGeometry y="338" width="245" height="26" as="geometry"/>
        </mxCell>
        <mxCell id="qUl1298BJiQfXsKrI5A6-120" value="+ tenders: Tender" style="text;strokeColor=none;fillColor=none;align=left;verticalAlign=top;spacingLeft=4;spacingRight=4;overflow=hidden;rotatable=0;points=[[0,0.5],[1,0.5]];portConstraint=eastwest;" vertex="1" parent="qUl1298BJiQfXsKrI5A6-25">
          <mxGeometry y="364" width="245" height="26" as="geometry"/>
        </mxCell>
        <mxCell id="qUl1298BJiQfXsKrI5A6-109" value="+ contract: Contract" style="text;strokeColor=none;fillColor=none;align=left;verticalAlign=top;spacingLeft=4;spacingRight=4;overflow=hidden;rotatable=0;points=[[0,0.5],[1,0.5]];portConstraint=eastwest;" vertex="1" parent="qUl1298BJiQfXsKrI5A6-25">
          <mxGeometry y="390" width="245" height="26" as="geometry"/>
        </mxCell>
        <mxCell id="qUl1298BJiQfXsKrI5A6-27" value="" style="line;strokeWidth=1;fillColor=none;align=left;verticalAlign=middle;spacingTop=-1;spacingLeft=3;spacingRight=3;rotatable=0;labelPosition=right;points=[];portConstraint=eastwest;" vertex="1" parent="qUl1298BJiQfXsKrI5A6-25">
          <mxGeometry y="416" width="245" height="8" as="geometry"/>
        </mxCell>
        <mxCell id="qUl1298BJiQfXsKrI5A6-44" value="&lt;br&gt;&lt;br&gt;" style="edgeStyle=orthogonalEdgeStyle;rounded=0;orthogonalLoop=1;jettySize=auto;html=1;entryX=0.5;entryY=0;entryDx=0;entryDy=0;" edge="1" parent="1" source="qUl1298BJiQfXsKrI5A6-43" target="qUl1298BJiQfXsKrI5A6-25">
          <mxGeometry relative="1" as="geometry"/>
        </mxCell>
        <mxCell id="qUl1298BJiQfXsKrI5A6-49" style="edgeStyle=orthogonalEdgeStyle;rounded=0;orthogonalLoop=1;jettySize=auto;html=1;" edge="1" parent="1" source="qUl1298BJiQfXsKrI5A6-46" target="qUl1298BJiQfXsKrI5A6-6">
          <mxGeometry relative="1" as="geometry"/>
        </mxCell>
        <mxCell id="qUl1298BJiQfXsKrI5A6-52" value="FundingSource" style="swimlane;fontStyle=1;align=center;verticalAlign=top;childLayout=stackLayout;horizontal=1;startSize=26;horizontalStack=0;resizeParent=1;resizeParentMax=0;resizeLast=0;collapsible=1;marginBottom=0;" vertex="1" parent="1">
          <mxGeometry x="290" y="600" width="160" height="60" as="geometry"/>
        </mxCell>
        <mxCell id="qUl1298BJiQfXsKrI5A6-53" value="+ name: string, required" style="text;strokeColor=none;fillColor=none;align=left;verticalAlign=top;spacingLeft=4;spacingRight=4;overflow=hidden;rotatable=0;points=[[0,0.5],[1,0.5]];portConstraint=eastwest;" vertex="1" parent="qUl1298BJiQfXsKrI5A6-52">
          <mxGeometry y="26" width="160" height="26" as="geometry"/>
        </mxCell>
        <mxCell id="qUl1298BJiQfXsKrI5A6-56" value="" style="line;strokeWidth=1;fillColor=none;align=left;verticalAlign=middle;spacingTop=-1;spacingLeft=3;spacingRight=3;rotatable=0;labelPosition=right;points=[];portConstraint=eastwest;" vertex="1" parent="qUl1298BJiQfXsKrI5A6-52">
          <mxGeometry y="52" width="160" height="8" as="geometry"/>
        </mxCell>
        <mxCell id="qUl1298BJiQfXsKrI5A6-58" style="edgeStyle=orthogonalEdgeStyle;rounded=0;orthogonalLoop=1;jettySize=auto;html=1;" edge="1" parent="1" source="qUl1298BJiQfXsKrI5A6-51" target="qUl1298BJiQfXsKrI5A6-52">
          <mxGeometry relative="1" as="geometry">
            <mxPoint x="290" y="610" as="targetPoint"/>
            <Array as="points">
              <mxPoint x="310" y="381"/>
            </Array>
          </mxGeometry>
        </mxCell>
        <mxCell id="qUl1298BJiQfXsKrI5A6-59" value="ProgramStatus" style="swimlane;fontStyle=1;align=center;verticalAlign=top;childLayout=stackLayout;horizontal=1;startSize=26;horizontalStack=0;resizeParent=1;resizeParentMax=0;resizeLast=0;collapsible=1;marginBottom=0;" vertex="1" parent="1">
          <mxGeometry x="30" y="590" width="160" height="60" as="geometry"/>
        </mxCell>
        <mxCell id="qUl1298BJiQfXsKrI5A6-60" value="+ name: string ( 32 )" style="text;strokeColor=none;fillColor=none;align=left;verticalAlign=top;spacingLeft=4;spacingRight=4;overflow=hidden;rotatable=0;points=[[0,0.5],[1,0.5]];portConstraint=eastwest;" vertex="1" parent="qUl1298BJiQfXsKrI5A6-59">
          <mxGeometry y="26" width="160" height="26" as="geometry"/>
        </mxCell>
        <mxCell id="qUl1298BJiQfXsKrI5A6-61" value="" style="line;strokeWidth=1;fillColor=none;align=left;verticalAlign=middle;spacingTop=-1;spacingLeft=3;spacingRight=3;rotatable=0;labelPosition=right;points=[];portConstraint=eastwest;" vertex="1" parent="qUl1298BJiQfXsKrI5A6-59">
          <mxGeometry y="52" width="160" height="8" as="geometry"/>
        </mxCell>
        <mxCell id="qUl1298BJiQfXsKrI5A6-63" style="edgeStyle=orthogonalEdgeStyle;rounded=0;orthogonalLoop=1;jettySize=auto;html=1;" edge="1" parent="1" source="qUl1298BJiQfXsKrI5A6-50" target="qUl1298BJiQfXsKrI5A6-59">
          <mxGeometry relative="1" as="geometry"/>
        </mxCell>
        <mxCell id="qUl1298BJiQfXsKrI5A6-65" value="Document" style="swimlane;fontStyle=1;align=center;verticalAlign=top;childLayout=stackLayout;horizontal=1;startSize=26;horizontalStack=0;resizeParent=1;resizeParentMax=0;resizeLast=0;collapsible=1;marginBottom=0;" vertex="1" parent="1">
          <mxGeometry x="250" y="700" width="200" height="112" as="geometry"/>
        </mxCell>
        <mxCell id="qUl1298BJiQfXsKrI5A6-66" value="+ file: file, required" style="text;strokeColor=none;fillColor=none;align=left;verticalAlign=top;spacingLeft=4;spacingRight=4;overflow=hidden;rotatable=0;points=[[0,0.5],[1,0.5]];portConstraint=eastwest;" vertex="1" parent="qUl1298BJiQfXsKrI5A6-65">
          <mxGeometry y="26" width="200" height="26" as="geometry"/>
        </mxCell>
        <mxCell id="qUl1298BJiQfXsKrI5A6-68" value="+ name: string, required" style="text;strokeColor=none;fillColor=none;align=left;verticalAlign=top;spacingLeft=4;spacingRight=4;overflow=hidden;rotatable=0;points=[[0,0.5],[1,0.5]];portConstraint=eastwest;" vertex="1" parent="qUl1298BJiQfXsKrI5A6-65">
          <mxGeometry y="52" width="200" height="26" as="geometry"/>
        </mxCell>
        <mxCell id="qUl1298BJiQfXsKrI5A6-69" value="+ type: DocumentType, required" style="text;strokeColor=none;fillColor=none;align=left;verticalAlign=top;spacingLeft=4;spacingRight=4;overflow=hidden;rotatable=0;points=[[0,0.5],[1,0.5]];portConstraint=eastwest;" vertex="1" parent="qUl1298BJiQfXsKrI5A6-65">
          <mxGeometry y="78" width="200" height="26" as="geometry"/>
        </mxCell>
        <mxCell id="qUl1298BJiQfXsKrI5A6-67" value="" style="line;strokeWidth=1;fillColor=none;align=left;verticalAlign=middle;spacingTop=-1;spacingLeft=3;spacingRight=3;rotatable=0;labelPosition=right;points=[];portConstraint=eastwest;" vertex="1" parent="qUl1298BJiQfXsKrI5A6-65">
          <mxGeometry y="104" width="200" height="8" as="geometry"/>
        </mxCell>
        <mxCell id="qUl1298BJiQfXsKrI5A6-70" style="edgeStyle=orthogonalEdgeStyle;rounded=0;orthogonalLoop=1;jettySize=auto;html=1;entryX=-0.011;entryY=0.131;entryDx=0;entryDy=0;entryPerimeter=0;" edge="1" parent="1" source="qUl1298BJiQfXsKrI5A6-64" target="qUl1298BJiQfXsKrI5A6-65">
          <mxGeometry relative="1" as="geometry"/>
        </mxCell>
        <mxCell id="qUl1298BJiQfXsKrI5A6-73" value="Asset ( estrada model )" style="html=1;" vertex="1" parent="1">
          <mxGeometry x="970" y="170" width="140" height="50" as="geometry"/>
        </mxCell>
        <mxCell id="qUl1298BJiQfXsKrI5A6-74" style="edgeStyle=orthogonalEdgeStyle;rounded=0;orthogonalLoop=1;jettySize=auto;html=1;entryX=0.5;entryY=0;entryDx=0;entryDy=0;" edge="1" parent="1" source="qUl1298BJiQfXsKrI5A6-72" target="qUl1298BJiQfXsKrI5A6-73">
          <mxGeometry relative="1" as="geometry"/>
        </mxCell>
        <mxCell id="qUl1298BJiQfXsKrI5A6-76" value="WorkType" style="swimlane;fontStyle=1;align=center;verticalAlign=top;childLayout=stackLayout;horizontal=1;startSize=26;horizontalStack=0;resizeParent=1;resizeParentMax=0;resizeLast=0;collapsible=1;marginBottom=0;" vertex="1" parent="1">
          <mxGeometry x="660" y="899" width="160" height="60" as="geometry"/>
        </mxCell>
        <mxCell id="qUl1298BJiQfXsKrI5A6-77" value="+ name: string, required" style="text;strokeColor=none;fillColor=none;align=left;verticalAlign=top;spacingLeft=4;spacingRight=4;overflow=hidden;rotatable=0;points=[[0,0.5],[1,0.5]];portConstraint=eastwest;" vertex="1" parent="qUl1298BJiQfXsKrI5A6-76">
          <mxGeometry y="26" width="160" height="26" as="geometry"/>
        </mxCell>
        <mxCell id="qUl1298BJiQfXsKrI5A6-78" value="" style="line;strokeWidth=1;fillColor=none;align=left;verticalAlign=middle;spacingTop=-1;spacingLeft=3;spacingRight=3;rotatable=0;labelPosition=right;points=[];portConstraint=eastwest;" vertex="1" parent="qUl1298BJiQfXsKrI5A6-76">
          <mxGeometry y="52" width="160" height="8" as="geometry"/>
        </mxCell>
        <mxCell id="qUl1298BJiQfXsKrI5A6-79" style="edgeStyle=orthogonalEdgeStyle;rounded=0;orthogonalLoop=1;jettySize=auto;html=1;entryX=0.5;entryY=0;entryDx=0;entryDy=0;exitX=1;exitY=0.5;exitDx=0;exitDy=0;" edge="1" parent="1" source="qUl1298BJiQfXsKrI5A6-75" target="qUl1298BJiQfXsKrI5A6-76">
          <mxGeometry relative="1" as="geometry">
            <Array as="points">
              <mxPoint x="890" y="313"/>
              <mxPoint x="890" y="430"/>
              <mxPoint x="870" y="430"/>
              <mxPoint x="870" y="820"/>
            </Array>
          </mxGeometry>
        </mxCell>
        <mxCell id="qUl1298BJiQfXsKrI5A6-83" style="edgeStyle=orthogonalEdgeStyle;rounded=0;orthogonalLoop=1;jettySize=auto;html=1;entryX=0.853;entryY=-0.005;entryDx=0;entryDy=0;entryPerimeter=0;" edge="1" parent="1" source="qUl1298BJiQfXsKrI5A6-81" target="qUl1298BJiQfXsKrI5A6-6">
          <mxGeometry relative="1" as="geometry"/>
        </mxCell>
        <mxCell id="qUl1298BJiQfXsKrI5A6-85" value="ProjectApproval" style="swimlane;fontStyle=1;align=center;verticalAlign=top;childLayout=stackLayout;horizontal=1;startSize=26;horizontalStack=0;resizeParent=1;resizeParentMax=0;resizeLast=0;collapsible=1;marginBottom=0;" vertex="1" parent="1">
          <mxGeometry x="610" y="759" width="160" height="86" as="geometry"/>
        </mxCell>
        <mxCell id="qUl1298BJiQfXsKrI5A6-86" value="+ approved: boolean, required" style="text;strokeColor=none;fillColor=none;align=left;verticalAlign=top;spacingLeft=4;spacingRight=4;overflow=hidden;rotatable=0;points=[[0,0.5],[1,0.5]];portConstraint=eastwest;" vertex="1" parent="qUl1298BJiQfXsKrI5A6-85">
          <mxGeometry y="26" width="160" height="26" as="geometry"/>
        </mxCell>
        <mxCell id="qUl1298BJiQfXsKrI5A6-88" value="+ date: date, required" style="text;strokeColor=none;fillColor=none;align=left;verticalAlign=top;spacingLeft=4;spacingRight=4;overflow=hidden;rotatable=0;points=[[0,0.5],[1,0.5]];portConstraint=eastwest;" vertex="1" parent="qUl1298BJiQfXsKrI5A6-85">
          <mxGeometry y="52" width="160" height="26" as="geometry"/>
        </mxCell>
        <mxCell id="qUl1298BJiQfXsKrI5A6-87" value="" style="line;strokeWidth=1;fillColor=none;align=left;verticalAlign=middle;spacingTop=-1;spacingLeft=3;spacingRight=3;rotatable=0;labelPosition=right;points=[];portConstraint=eastwest;" vertex="1" parent="qUl1298BJiQfXsKrI5A6-85">
          <mxGeometry y="78" width="160" height="8" as="geometry"/>
        </mxCell>
        <mxCell id="qUl1298BJiQfXsKrI5A6-90" style="edgeStyle=orthogonalEdgeStyle;rounded=0;orthogonalLoop=1;jettySize=auto;html=1;exitX=1;exitY=0.5;exitDx=0;exitDy=0;" edge="1" parent="1" source="qUl1298BJiQfXsKrI5A6-91" target="qUl1298BJiQfXsKrI5A6-85">
          <mxGeometry relative="1" as="geometry">
            <Array as="points">
              <mxPoint x="850" y="391"/>
              <mxPoint x="850" y="660"/>
              <mxPoint x="690" y="660"/>
            </Array>
          </mxGeometry>
        </mxCell>
        <mxCell id="qUl1298BJiQfXsKrI5A6-92" style="edgeStyle=orthogonalEdgeStyle;rounded=0;orthogonalLoop=1;jettySize=auto;html=1;entryX=0.75;entryY=0;entryDx=0;entryDy=0;" edge="1" parent="1" source="qUl1298BJiQfXsKrI5A6-84" target="qUl1298BJiQfXsKrI5A6-52">
          <mxGeometry relative="1" as="geometry">
            <Array as="points">
              <mxPoint x="500" y="417"/>
              <mxPoint x="500" y="570"/>
              <mxPoint x="410" y="570"/>
            </Array>
          </mxGeometry>
        </mxCell>
        <mxCell id="qUl1298BJiQfXsKrI5A6-95" value="SocialRequirement" style="swimlane;fontStyle=1;align=center;verticalAlign=top;childLayout=stackLayout;horizontal=1;startSize=26;horizontalStack=0;resizeParent=1;resizeParentMax=0;resizeLast=0;collapsible=1;marginBottom=0;" vertex="1" parent="1">
          <mxGeometry x="585" y="620" width="160" height="112" as="geometry"/>
        </mxCell>
        <mxCell id="qUl1298BJiQfXsKrI5A6-96" value="+ total_wage: numeric" style="text;strokeColor=none;fillColor=none;align=left;verticalAlign=top;spacingLeft=4;spacingRight=4;overflow=hidden;rotatable=0;points=[[0,0.5],[1,0.5]];portConstraint=eastwest;" vertex="1" parent="qUl1298BJiQfXsKrI5A6-95">
          <mxGeometry y="26" width="160" height="26" as="geometry"/>
        </mxCell>
        <mxCell id="qUl1298BJiQfXsKrI5A6-100" value="+ female_employees: int" style="text;strokeColor=none;fillColor=none;align=left;verticalAlign=top;spacingLeft=4;spacingRight=4;overflow=hidden;rotatable=0;points=[[0,0.5],[1,0.5]];portConstraint=eastwest;" vertex="1" parent="qUl1298BJiQfXsKrI5A6-95">
          <mxGeometry y="52" width="160" height="26" as="geometry"/>
        </mxCell>
        <mxCell id="qUl1298BJiQfXsKrI5A6-97" value="+ ... many more" style="text;strokeColor=none;fillColor=none;align=left;verticalAlign=top;spacingLeft=4;spacingRight=4;overflow=hidden;rotatable=0;points=[[0,0.5],[1,0.5]];portConstraint=eastwest;" vertex="1" parent="qUl1298BJiQfXsKrI5A6-95">
          <mxGeometry y="78" width="160" height="26" as="geometry"/>
        </mxCell>
        <mxCell id="qUl1298BJiQfXsKrI5A6-98" value="" style="line;strokeWidth=1;fillColor=none;align=left;verticalAlign=middle;spacingTop=-1;spacingLeft=3;spacingRight=3;rotatable=0;labelPosition=right;points=[];portConstraint=eastwest;" vertex="1" parent="qUl1298BJiQfXsKrI5A6-95">
          <mxGeometry y="104" width="160" height="8" as="geometry"/>
        </mxCell>
        <mxCell id="qUl1298BJiQfXsKrI5A6-99" style="edgeStyle=orthogonalEdgeStyle;rounded=0;orthogonalLoop=1;jettySize=auto;html=1;" edge="1" parent="1" source="qUl1298BJiQfXsKrI5A6-101" target="qUl1298BJiQfXsKrI5A6-95">
          <mxGeometry relative="1" as="geometry">
            <mxPoint x="580" y="590" as="targetPoint"/>
            <Array as="points">
              <mxPoint x="565" y="469"/>
              <mxPoint x="565" y="580"/>
              <mxPoint x="665" y="580"/>
            </Array>
          </mxGeometry>
        </mxCell>
        <mxCell id="qUl1298BJiQfXsKrI5A6-102" value="ProjectStatus" style="swimlane;fontStyle=1;align=center;verticalAlign=top;childLayout=stackLayout;horizontal=1;startSize=26;horizontalStack=0;resizeParent=1;resizeParentMax=0;resizeLast=0;collapsible=1;marginBottom=0;" vertex="1" parent="1">
          <mxGeometry x="480" y="879" width="160" height="60" as="geometry"/>
        </mxCell>
        <mxCell id="qUl1298BJiQfXsKrI5A6-103" value="+ name: string ( 32 )" style="text;strokeColor=none;fillColor=none;align=left;verticalAlign=top;spacingLeft=4;spacingRight=4;overflow=hidden;rotatable=0;points=[[0,0.5],[1,0.5]];portConstraint=eastwest;" vertex="1" parent="qUl1298BJiQfXsKrI5A6-102">
          <mxGeometry y="26" width="160" height="26" as="geometry"/>
        </mxCell>
        <mxCell id="qUl1298BJiQfXsKrI5A6-104" value="" style="line;strokeWidth=1;fillColor=none;align=left;verticalAlign=middle;spacingTop=-1;spacingLeft=3;spacingRight=3;rotatable=0;labelPosition=right;points=[];portConstraint=eastwest;" vertex="1" parent="qUl1298BJiQfXsKrI5A6-102">
          <mxGeometry y="52" width="160" height="8" as="geometry"/>
        </mxCell>
        <mxCell id="qUl1298BJiQfXsKrI5A6-105" style="edgeStyle=orthogonalEdgeStyle;rounded=0;orthogonalLoop=1;jettySize=auto;html=1;entryX=0.5;entryY=0;entryDx=0;entryDy=0;" edge="1" parent="1" source="qUl1298BJiQfXsKrI5A6-94" target="qUl1298BJiQfXsKrI5A6-102">
          <mxGeometry relative="1" as="geometry"/>
        </mxCell>
        <mxCell id="qUl1298BJiQfXsKrI5A6-107" style="edgeStyle=orthogonalEdgeStyle;rounded=0;orthogonalLoop=1;jettySize=auto;html=1;entryX=0.75;entryY=0;entryDx=0;entryDy=0;exitX=0;exitY=0.5;exitDx=0;exitDy=0;" edge="1" parent="1" source="qUl1298BJiQfXsKrI5A6-106" target="qUl1298BJiQfXsKrI5A6-65">
          <mxGeometry relative="1" as="geometry">
            <Array as="points">
              <mxPoint x="520" y="521"/>
              <mxPoint x="520" y="670"/>
              <mxPoint x="400" y="670"/>
            </Array>
          </mxGeometry>
        </mxCell>
        <mxCell id="qUl1298BJiQfXsKrI5A6-110" value="Tender" style="swimlane;fontStyle=1;align=center;verticalAlign=top;childLayout=stackLayout;horizontal=1;startSize=26;horizontalStack=0;resizeParent=1;resizeParentMax=0;resizeLast=0;collapsible=1;marginBottom=0;" vertex="1" parent="1">
          <mxGeometry x="950" y="310" width="160" height="164" as="geometry"/>
        </mxCell>
        <mxCell id="qUl1298BJiQfXsKrI5A6-111" value="+ announcement: date" style="text;strokeColor=none;fillColor=none;align=left;verticalAlign=top;spacingLeft=4;spacingRight=4;overflow=hidden;rotatable=0;points=[[0,0.5],[1,0.5]];portConstraint=eastwest;" vertex="1" parent="qUl1298BJiQfXsKrI5A6-110">
          <mxGeometry y="26" width="160" height="26" as="geometry"/>
        </mxCell>
        <mxCell id="qUl1298BJiQfXsKrI5A6-112" value="+ deadline: date" style="text;strokeColor=none;fillColor=none;align=left;verticalAlign=top;spacingLeft=4;spacingRight=4;overflow=hidden;rotatable=0;points=[[0,0.5],[1,0.5]];portConstraint=eastwest;" vertex="1" parent="qUl1298BJiQfXsKrI5A6-110">
          <mxGeometry y="52" width="160" height="26" as="geometry"/>
        </mxCell>
        <mxCell id="qUl1298BJiQfXsKrI5A6-115" value="+ evaluation: date" style="text;strokeColor=none;fillColor=none;align=left;verticalAlign=top;spacingLeft=4;spacingRight=4;overflow=hidden;rotatable=0;points=[[0,0.5],[1,0.5]];portConstraint=eastwest;" vertex="1" parent="qUl1298BJiQfXsKrI5A6-110">
          <mxGeometry y="78" width="160" height="26" as="geometry"/>
        </mxCell>
        <mxCell id="qUl1298BJiQfXsKrI5A6-118" value="+ documents: Documents" style="text;strokeColor=none;fillColor=none;align=left;verticalAlign=top;spacingLeft=4;spacingRight=4;overflow=hidden;rotatable=0;points=[[0,0.5],[1,0.5]];portConstraint=eastwest;" vertex="1" parent="qUl1298BJiQfXsKrI5A6-110">
          <mxGeometry y="104" width="160" height="26" as="geometry"/>
        </mxCell>
        <mxCell id="qUl1298BJiQfXsKrI5A6-114" value="" style="line;strokeWidth=1;fillColor=none;align=left;verticalAlign=middle;spacingTop=-1;spacingLeft=3;spacingRight=3;rotatable=0;labelPosition=right;points=[];portConstraint=eastwest;" vertex="1" parent="qUl1298BJiQfXsKrI5A6-110">
          <mxGeometry y="130" width="160" height="8" as="geometry"/>
        </mxCell>
        <mxCell id="qUl1298BJiQfXsKrI5A6-113" value="+ status() - based on date" style="text;strokeColor=none;fillColor=none;align=left;verticalAlign=top;spacingLeft=4;spacingRight=4;overflow=hidden;rotatable=0;points=[[0,0.5],[1,0.5]];portConstraint=eastwest;" vertex="1" parent="qUl1298BJiQfXsKrI5A6-110">
          <mxGeometry y="138" width="160" height="26" as="geometry"/>
        </mxCell>
        <mxCell id="qUl1298BJiQfXsKrI5A6-117" style="edgeStyle=orthogonalEdgeStyle;rounded=0;orthogonalLoop=1;jettySize=auto;html=1;entryX=0.5;entryY=0;entryDx=0;entryDy=0;" edge="1" parent="1" source="qUl1298BJiQfXsKrI5A6-120" target="qUl1298BJiQfXsKrI5A6-110">
          <mxGeometry relative="1" as="geometry">
            <mxPoint x="860" y="560" as="sourcePoint"/>
            <Array as="points">
              <mxPoint x="920" y="547"/>
              <mxPoint x="920" y="290"/>
              <mxPoint x="1030" y="290"/>
            </Array>
          </mxGeometry>
        </mxCell>
        <mxCell id="qUl1298BJiQfXsKrI5A6-119" style="edgeStyle=orthogonalEdgeStyle;rounded=0;orthogonalLoop=1;jettySize=auto;html=1;entryX=1;entryY=0.107;entryDx=0;entryDy=0;entryPerimeter=0;exitX=0;exitY=0.5;exitDx=0;exitDy=0;" edge="1" parent="1" source="qUl1298BJiQfXsKrI5A6-118" target="qUl1298BJiQfXsKrI5A6-65">
          <mxGeometry relative="1" as="geometry">
            <mxPoint x="580" y="770" as="targetPoint"/>
            <Array as="points">
              <mxPoint x="940" y="427"/>
              <mxPoint x="940" y="990"/>
              <mxPoint x="448" y="990"/>
              <mxPoint x="448" y="810"/>
              <mxPoint x="450" y="810"/>
            </Array>
          </mxGeometry>
        </mxCell>
        <mxCell id="qUl1298BJiQfXsKrI5A6-121" value="Contract" style="swimlane;fontStyle=1;align=center;verticalAlign=top;childLayout=stackLayout;horizontal=1;startSize=26;horizontalStack=0;resizeParent=1;resizeParentMax=0;resizeLast=0;collapsible=1;marginBottom=0;" vertex="1" parent="1">
          <mxGeometry x="980" y="514" width="180" height="268" as="geometry"/>
        </mxCell>
        <mxCell id="qUl1298BJiQfXsKrI5A6-122" value="+ code: slug" style="text;strokeColor=none;fillColor=none;align=left;verticalAlign=top;spacingLeft=4;spacingRight=4;overflow=hidden;rotatable=0;points=[[0,0.5],[1,0.5]];portConstraint=eastwest;" vertex="1" parent="qUl1298BJiQfXsKrI5A6-121">
          <mxGeometry y="26" width="180" height="26" as="geometry"/>
        </mxCell>
        <mxCell id="qUl1298BJiQfXsKrI5A6-123" value="+ description: text" style="text;strokeColor=none;fillColor=none;align=left;verticalAlign=top;spacingLeft=4;spacingRight=4;overflow=hidden;rotatable=0;points=[[0,0.5],[1,0.5]];portConstraint=eastwest;" vertex="1" parent="qUl1298BJiQfXsKrI5A6-121">
          <mxGeometry y="52" width="180" height="26" as="geometry"/>
        </mxCell>
        <mxCell id="qUl1298BJiQfXsKrI5A6-124" value="+ signed: date" style="text;strokeColor=none;fillColor=none;align=left;verticalAlign=top;spacingLeft=4;spacingRight=4;overflow=hidden;rotatable=0;points=[[0,0.5],[1,0.5]];portConstraint=eastwest;" vertex="1" parent="qUl1298BJiQfXsKrI5A6-121">
          <mxGeometry y="78" width="180" height="26" as="geometry"/>
        </mxCell>
        <mxCell id="qUl1298BJiQfXsKrI5A6-125" value="+ contractor: Company" style="text;strokeColor=none;fillColor=none;align=left;verticalAlign=top;spacingLeft=4;spacingRight=4;overflow=hidden;rotatable=0;points=[[0,0.5],[1,0.5]];portConstraint=eastwest;" vertex="1" parent="qUl1298BJiQfXsKrI5A6-121">
          <mxGeometry y="104" width="180" height="26" as="geometry"/>
        </mxCell>
        <mxCell id="qUl1298BJiQfXsKrI5A6-130" value="+ duration: daterange" style="text;strokeColor=none;fillColor=none;align=left;verticalAlign=top;spacingLeft=4;spacingRight=4;overflow=hidden;rotatable=0;points=[[0,0.5],[1,0.5]];portConstraint=eastwest;" vertex="1" parent="qUl1298BJiQfXsKrI5A6-121">
          <mxGeometry y="130" width="180" height="26" as="geometry"/>
        </mxCell>
        <mxCell id="qUl1298BJiQfXsKrI5A6-131" value="+ value: numeric" style="text;strokeColor=none;fillColor=none;align=left;verticalAlign=top;spacingLeft=4;spacingRight=4;overflow=hidden;rotatable=0;points=[[0,0.5],[1,0.5]];portConstraint=eastwest;" vertex="1" parent="qUl1298BJiQfXsKrI5A6-121">
          <mxGeometry y="156" width="180" height="26" as="geometry"/>
        </mxCell>
        <mxCell id="qUl1298BJiQfXsKrI5A6-144" value="+ amendments: Amendments" style="text;strokeColor=none;fillColor=none;align=left;verticalAlign=top;spacingLeft=4;spacingRight=4;overflow=hidden;rotatable=0;points=[[0,0.5],[1,0.5]];portConstraint=eastwest;" vertex="1" parent="qUl1298BJiQfXsKrI5A6-121">
          <mxGeometry y="182" width="180" height="26" as="geometry"/>
        </mxCell>
        <mxCell id="qUl1298BJiQfXsKrI5A6-129" value="+ payments: Payment" style="text;strokeColor=none;fillColor=none;align=left;verticalAlign=top;spacingLeft=4;spacingRight=4;overflow=hidden;rotatable=0;points=[[0,0.5],[1,0.5]];portConstraint=eastwest;" vertex="1" parent="qUl1298BJiQfXsKrI5A6-121">
          <mxGeometry y="208" width="180" height="26" as="geometry"/>
        </mxCell>
        <mxCell id="qUl1298BJiQfXsKrI5A6-126" value="" style="line;strokeWidth=1;fillColor=none;align=left;verticalAlign=middle;spacingTop=-1;spacingLeft=3;spacingRight=3;rotatable=0;labelPosition=right;points=[];portConstraint=eastwest;" vertex="1" parent="qUl1298BJiQfXsKrI5A6-121">
          <mxGeometry y="234" width="180" height="8" as="geometry"/>
        </mxCell>
        <mxCell id="qUl1298BJiQfXsKrI5A6-127" value="+ status() - based on date" style="text;strokeColor=none;fillColor=none;align=left;verticalAlign=top;spacingLeft=4;spacingRight=4;overflow=hidden;rotatable=0;points=[[0,0.5],[1,0.5]];portConstraint=eastwest;" vertex="1" parent="qUl1298BJiQfXsKrI5A6-121">
          <mxGeometry y="242" width="180" height="26" as="geometry"/>
        </mxCell>
        <mxCell id="qUl1298BJiQfXsKrI5A6-128" style="edgeStyle=orthogonalEdgeStyle;rounded=0;orthogonalLoop=1;jettySize=auto;html=1;" edge="1" parent="1" source="qUl1298BJiQfXsKrI5A6-109" target="qUl1298BJiQfXsKrI5A6-121">
          <mxGeometry relative="1" as="geometry"/>
        </mxCell>
        <mxCell id="qUl1298BJiQfXsKrI5A6-132" value="Amendment" style="swimlane;fontStyle=1;align=center;verticalAlign=top;childLayout=stackLayout;horizontal=1;startSize=26;horizontalStack=0;resizeParent=1;resizeParentMax=0;resizeLast=0;collapsible=1;marginBottom=0;" vertex="1" parent="1">
          <mxGeometry x="1180" y="524" width="180" height="138" as="geometry"/>
        </mxCell>
        <mxCell id="qUl1298BJiQfXsKrI5A6-135" value="+ description: text" style="text;strokeColor=none;fillColor=none;align=left;verticalAlign=top;spacingLeft=4;spacingRight=4;overflow=hidden;rotatable=0;points=[[0,0.5],[1,0.5]];portConstraint=eastwest;" vertex="1" parent="qUl1298BJiQfXsKrI5A6-132">
          <mxGeometry y="26" width="180" height="26" as="geometry"/>
        </mxCell>
        <mxCell id="qUl1298BJiQfXsKrI5A6-142" value="+ signed: date" style="text;strokeColor=none;fillColor=none;align=left;verticalAlign=top;spacingLeft=4;spacingRight=4;overflow=hidden;rotatable=0;points=[[0,0.5],[1,0.5]];portConstraint=eastwest;" vertex="1" parent="qUl1298BJiQfXsKrI5A6-132">
          <mxGeometry y="52" width="180" height="26" as="geometry"/>
        </mxCell>
        <mxCell id="qUl1298BJiQfXsKrI5A6-137" value="+ duration: daterange" style="text;strokeColor=none;fillColor=none;align=left;verticalAlign=top;spacingLeft=4;spacingRight=4;overflow=hidden;rotatable=0;points=[[0,0.5],[1,0.5]];portConstraint=eastwest;" vertex="1" parent="qUl1298BJiQfXsKrI5A6-132">
          <mxGeometry y="78" width="180" height="26" as="geometry"/>
        </mxCell>
        <mxCell id="qUl1298BJiQfXsKrI5A6-138" value="+ value: numeric" style="text;strokeColor=none;fillColor=none;align=left;verticalAlign=top;spacingLeft=4;spacingRight=4;overflow=hidden;rotatable=0;points=[[0,0.5],[1,0.5]];portConstraint=eastwest;" vertex="1" parent="qUl1298BJiQfXsKrI5A6-132">
          <mxGeometry y="104" width="180" height="26" as="geometry"/>
        </mxCell>
        <mxCell id="qUl1298BJiQfXsKrI5A6-140" value="" style="line;strokeWidth=1;fillColor=none;align=left;verticalAlign=middle;spacingTop=-1;spacingLeft=3;spacingRight=3;rotatable=0;labelPosition=right;points=[];portConstraint=eastwest;" vertex="1" parent="qUl1298BJiQfXsKrI5A6-132">
          <mxGeometry y="130" width="180" height="8" as="geometry"/>
        </mxCell>
        <mxCell id="qUl1298BJiQfXsKrI5A6-143" style="edgeStyle=orthogonalEdgeStyle;rounded=0;orthogonalLoop=1;jettySize=auto;html=1;" edge="1" parent="1" source="qUl1298BJiQfXsKrI5A6-144" target="qUl1298BJiQfXsKrI5A6-132">
          <mxGeometry relative="1" as="geometry"/>
        </mxCell>
        <mxCell id="qUl1298BJiQfXsKrI5A6-145" value="Payment" style="swimlane;fontStyle=1;align=center;verticalAlign=top;childLayout=stackLayout;horizontal=1;startSize=26;horizontalStack=0;resizeParent=1;resizeParentMax=0;resizeLast=0;collapsible=1;marginBottom=0;" vertex="1" parent="1">
          <mxGeometry x="1200" y="741" width="180" height="138" as="geometry"/>
        </mxCell>
        <mxCell id="qUl1298BJiQfXsKrI5A6-146" value="+ requested: date" style="text;strokeColor=none;fillColor=none;align=left;verticalAlign=top;spacingLeft=4;spacingRight=4;overflow=hidden;rotatable=0;points=[[0,0.5],[1,0.5]];portConstraint=eastwest;" vertex="1" parent="qUl1298BJiQfXsKrI5A6-145">
          <mxGeometry y="26" width="180" height="26" as="geometry"/>
        </mxCell>
        <mxCell id="qUl1298BJiQfXsKrI5A6-147" value="+ signed: date" style="text;strokeColor=none;fillColor=none;align=left;verticalAlign=top;spacingLeft=4;spacingRight=4;overflow=hidden;rotatable=0;points=[[0,0.5],[1,0.5]];portConstraint=eastwest;" vertex="1" parent="qUl1298BJiQfXsKrI5A6-145">
          <mxGeometry y="52" width="180" height="26" as="geometry"/>
        </mxCell>
        <mxCell id="qUl1298BJiQfXsKrI5A6-148" value="+ duration: daterange" style="text;strokeColor=none;fillColor=none;align=left;verticalAlign=top;spacingLeft=4;spacingRight=4;overflow=hidden;rotatable=0;points=[[0,0.5],[1,0.5]];portConstraint=eastwest;" vertex="1" parent="qUl1298BJiQfXsKrI5A6-145">
          <mxGeometry y="78" width="180" height="26" as="geometry"/>
        </mxCell>
        <mxCell id="qUl1298BJiQfXsKrI5A6-149" value="+ value: numeric" style="text;strokeColor=none;fillColor=none;align=left;verticalAlign=top;spacingLeft=4;spacingRight=4;overflow=hidden;rotatable=0;points=[[0,0.5],[1,0.5]];portConstraint=eastwest;" vertex="1" parent="qUl1298BJiQfXsKrI5A6-145">
          <mxGeometry y="104" width="180" height="26" as="geometry"/>
        </mxCell>
        <mxCell id="qUl1298BJiQfXsKrI5A6-150" value="" style="line;strokeWidth=1;fillColor=none;align=left;verticalAlign=middle;spacingTop=-1;spacingLeft=3;spacingRight=3;rotatable=0;labelPosition=right;points=[];portConstraint=eastwest;" vertex="1" parent="qUl1298BJiQfXsKrI5A6-145">
          <mxGeometry y="130" width="180" height="8" as="geometry"/>
        </mxCell>
        <mxCell id="qUl1298BJiQfXsKrI5A6-151" value="Inspection" style="swimlane;fontStyle=1;align=center;verticalAlign=top;childLayout=stackLayout;horizontal=1;startSize=26;horizontalStack=0;resizeParent=1;resizeParentMax=0;resizeLast=0;collapsible=1;marginBottom=0;" vertex="1" parent="1">
          <mxGeometry x="1420" y="551" width="180" height="138" as="geometry"/>
        </mxCell>
        <mxCell id="qUl1298BJiQfXsKrI5A6-152" value="+ requested: date" style="text;strokeColor=none;fillColor=none;align=left;verticalAlign=top;spacingLeft=4;spacingRight=4;overflow=hidden;rotatable=0;points=[[0,0.5],[1,0.5]];portConstraint=eastwest;" vertex="1" parent="qUl1298BJiQfXsKrI5A6-151">
          <mxGeometry y="26" width="180" height="26" as="geometry"/>
        </mxCell>
        <mxCell id="qUl1298BJiQfXsKrI5A6-153" value="+ signed: date" style="text;strokeColor=none;fillColor=none;align=left;verticalAlign=top;spacingLeft=4;spacingRight=4;overflow=hidden;rotatable=0;points=[[0,0.5],[1,0.5]];portConstraint=eastwest;" vertex="1" parent="qUl1298BJiQfXsKrI5A6-151">
          <mxGeometry y="52" width="180" height="26" as="geometry"/>
        </mxCell>
        <mxCell id="qUl1298BJiQfXsKrI5A6-154" value="+ duration: daterange" style="text;strokeColor=none;fillColor=none;align=left;verticalAlign=top;spacingLeft=4;spacingRight=4;overflow=hidden;rotatable=0;points=[[0,0.5],[1,0.5]];portConstraint=eastwest;" vertex="1" parent="qUl1298BJiQfXsKrI5A6-151">
          <mxGeometry y="78" width="180" height="26" as="geometry"/>
        </mxCell>
        <mxCell id="qUl1298BJiQfXsKrI5A6-155" value="+ value: numeric" style="text;strokeColor=none;fillColor=none;align=left;verticalAlign=top;spacingLeft=4;spacingRight=4;overflow=hidden;rotatable=0;points=[[0,0.5],[1,0.5]];portConstraint=eastwest;" vertex="1" parent="qUl1298BJiQfXsKrI5A6-151">
          <mxGeometry y="104" width="180" height="26" as="geometry"/>
        </mxCell>
        <mxCell id="qUl1298BJiQfXsKrI5A6-156" value="" style="line;strokeWidth=1;fillColor=none;align=left;verticalAlign=middle;spacingTop=-1;spacingLeft=3;spacingRight=3;rotatable=0;labelPosition=right;points=[];portConstraint=eastwest;" vertex="1" parent="qUl1298BJiQfXsKrI5A6-151">
          <mxGeometry y="130" width="180" height="8" as="geometry"/>
        </mxCell>
        <mxCell id="qUl1298BJiQfXsKrI5A6-157" value="SocialRequirementData" style="swimlane;fontStyle=1;align=center;verticalAlign=top;childLayout=stackLayout;horizontal=1;startSize=26;horizontalStack=0;resizeParent=1;resizeParentMax=0;resizeLast=0;collapsible=1;marginBottom=0;" vertex="1" parent="1">
          <mxGeometry x="1200" y="930" width="160" height="112" as="geometry"/>
        </mxCell>
        <mxCell id="qUl1298BJiQfXsKrI5A6-158" value="+ total_wage: numeric" style="text;strokeColor=none;fillColor=none;align=left;verticalAlign=top;spacingLeft=4;spacingRight=4;overflow=hidden;rotatable=0;points=[[0,0.5],[1,0.5]];portConstraint=eastwest;" vertex="1" parent="qUl1298BJiQfXsKrI5A6-157">
          <mxGeometry y="26" width="160" height="26" as="geometry"/>
        </mxCell>
        <mxCell id="qUl1298BJiQfXsKrI5A6-159" value="+ female_employees: int" style="text;strokeColor=none;fillColor=none;align=left;verticalAlign=top;spacingLeft=4;spacingRight=4;overflow=hidden;rotatable=0;points=[[0,0.5],[1,0.5]];portConstraint=eastwest;" vertex="1" parent="qUl1298BJiQfXsKrI5A6-157">
          <mxGeometry y="52" width="160" height="26" as="geometry"/>
        </mxCell>
        <mxCell id="qUl1298BJiQfXsKrI5A6-160" value="+ ... many more" style="text;strokeColor=none;fillColor=none;align=left;verticalAlign=top;spacingLeft=4;spacingRight=4;overflow=hidden;rotatable=0;points=[[0,0.5],[1,0.5]];portConstraint=eastwest;" vertex="1" parent="qUl1298BJiQfXsKrI5A6-157">
          <mxGeometry y="78" width="160" height="26" as="geometry"/>
        </mxCell>
        <mxCell id="qUl1298BJiQfXsKrI5A6-161" value="" style="line;strokeWidth=1;fillColor=none;align=left;verticalAlign=middle;spacingTop=-1;spacingLeft=3;spacingRight=3;rotatable=0;labelPosition=right;points=[];portConstraint=eastwest;" vertex="1" parent="qUl1298BJiQfXsKrI5A6-157">
          <mxGeometry y="104" width="160" height="8" as="geometry"/>
        </mxCell>
        <mxCell id="qUl1298BJiQfXsKrI5A6-162" value="Company" style="swimlane;fontStyle=1;align=center;verticalAlign=top;childLayout=stackLayout;horizontal=1;startSize=26;horizontalStack=0;resizeParent=1;resizeParentMax=0;resizeLast=0;collapsible=1;marginBottom=0;" vertex="1" parent="1">
          <mxGeometry x="1430" y="751" width="180" height="138" as="geometry"/>
        </mxCell>
        <mxCell id="qUl1298BJiQfXsKrI5A6-163" value="+ requested: date" style="text;strokeColor=none;fillColor=none;align=left;verticalAlign=top;spacingLeft=4;spacingRight=4;overflow=hidden;rotatable=0;points=[[0,0.5],[1,0.5]];portConstraint=eastwest;" vertex="1" parent="qUl1298BJiQfXsKrI5A6-162">
          <mxGeometry y="26" width="180" height="26" as="geometry"/>
        </mxCell>
        <mxCell id="qUl1298BJiQfXsKrI5A6-164" value="+ signed: date" style="text;strokeColor=none;fillColor=none;align=left;verticalAlign=top;spacingLeft=4;spacingRight=4;overflow=hidden;rotatable=0;points=[[0,0.5],[1,0.5]];portConstraint=eastwest;" vertex="1" parent="qUl1298BJiQfXsKrI5A6-162">
          <mxGeometry y="52" width="180" height="26" as="geometry"/>
        </mxCell>
        <mxCell id="qUl1298BJiQfXsKrI5A6-165" value="+ duration: daterange" style="text;strokeColor=none;fillColor=none;align=left;verticalAlign=top;spacingLeft=4;spacingRight=4;overflow=hidden;rotatable=0;points=[[0,0.5],[1,0.5]];portConstraint=eastwest;" vertex="1" parent="qUl1298BJiQfXsKrI5A6-162">
          <mxGeometry y="78" width="180" height="26" as="geometry"/>
        </mxCell>
        <mxCell id="qUl1298BJiQfXsKrI5A6-166" value="+ value: numeric" style="text;strokeColor=none;fillColor=none;align=left;verticalAlign=top;spacingLeft=4;spacingRight=4;overflow=hidden;rotatable=0;points=[[0,0.5],[1,0.5]];portConstraint=eastwest;" vertex="1" parent="qUl1298BJiQfXsKrI5A6-162">
          <mxGeometry y="104" width="180" height="26" as="geometry"/>
        </mxCell>
        <mxCell id="qUl1298BJiQfXsKrI5A6-167" value="" style="line;strokeWidth=1;fillColor=none;align=left;verticalAlign=middle;spacingTop=-1;spacingLeft=3;spacingRight=3;rotatable=0;labelPosition=right;points=[];portConstraint=eastwest;" vertex="1" parent="qUl1298BJiQfXsKrI5A6-162">
          <mxGeometry y="130" width="180" height="8" as="geometry"/>
        </mxCell>
        <mxCell id="qUl1298BJiQfXsKrI5A6-168" value="DocumentType" style="swimlane;fontStyle=1;align=center;verticalAlign=top;childLayout=stackLayout;horizontal=1;startSize=26;horizontalStack=0;resizeParent=1;resizeParentMax=0;resizeLast=0;collapsible=1;marginBottom=0;" vertex="1" parent="1">
          <mxGeometry x="230" y="853" width="200" height="60" as="geometry"/>
        </mxCell>
        <mxCell id="qUl1298BJiQfXsKrI5A6-170" value="+ name: string, required" style="text;strokeColor=none;fillColor=none;align=left;verticalAlign=top;spacingLeft=4;spacingRight=4;overflow=hidden;rotatable=0;points=[[0,0.5],[1,0.5]];portConstraint=eastwest;" vertex="1" parent="qUl1298BJiQfXsKrI5A6-168">
          <mxGeometry y="26" width="200" height="26" as="geometry"/>
        </mxCell>
        <mxCell id="qUl1298BJiQfXsKrI5A6-172" value="" style="line;strokeWidth=1;fillColor=none;align=left;verticalAlign=middle;spacingTop=-1;spacingLeft=3;spacingRight=3;rotatable=0;labelPosition=right;points=[];portConstraint=eastwest;" vertex="1" parent="qUl1298BJiQfXsKrI5A6-168">
          <mxGeometry y="52" width="200" height="8" as="geometry"/>
        </mxCell>
        <mxCell id="qUl1298BJiQfXsKrI5A6-173" style="edgeStyle=orthogonalEdgeStyle;rounded=0;orthogonalLoop=1;jettySize=auto;html=1;" edge="1" parent="1" source="qUl1298BJiQfXsKrI5A6-69" target="qUl1298BJiQfXsKrI5A6-168">
          <mxGeometry relative="1" as="geometry"/>
        </mxCell>
      </root>
    </mxGraphModel>
  </diagram>
</mxfile>
